<svg xmlns="http://www.w3.org/2000/svg" viewBox="0 0 137.92 125.13"><title>waze</title><g id="Waze_2" data-name="Camada 2"><g id="Waze_1-2" data-name="Camada 1"><path d="M78.12,0c19.75.59,36.4,7.93,48.55,23.71,19.53,25.35,13,59.37-14.62,77.25-3.42,2.22-5.12,4.25-4.87,8.62.42,7.45-4.68,13.34-12,15.12-6.76,1.65-14.79-1.82-17.28-8.68-1.71-4.7-4.35-5.56-8.53-5.16a34.24,34.24,0,0,1-6,0c-2.72-.24-4.05.78-5.09,3.43-3.12,7.91-10.31,12-17.74,10.54-7.7-1.5-12.39-7.37-12.41-16.3,0-3-1.44-4.08-3.7-5.06-8.71-3.76-16.31-9-22.11-16.63-4.59-6-2.19-11.92,5.35-12.76,5.11-.56,7.7-3.08,8.54-8.09,1.11-6.58,1.33-13.26,2.37-19.81C21.78,26,34.47,13.38,52.36,5.35A59.25,59.25,0,0,1,78.12,0ZM67.54,103.08c3.71-.87,8.1,2,11.4-2.5,5.48-7.45,12.71-8.88,21.11-4.53a5.87,5.87,0,0,0,6.06.15c21.83-11.36,30.66-39.32,19.25-61.1C113.68,12.79,86.12,1.79,61.09,10,41.66,16.34,28,28.45,25.48,50c-.71,5.94-1,11.91-2.18,17.81-1.37,7.07-5,12-12.37,13.19-3.08.51-2.79,1.59-1.13,3.44A49.62,49.62,0,0,0,27.6,97,7,7,0,0,0,35,96.33C41.29,92.15,49.84,92.5,54.11,98,57.88,102.94,62.1,103.84,67.54,103.08Zm-17.24,6a6.65,6.65,0,0,0-6.48-6.87,6.91,6.91,0,0,0-6.71,6.69,6.61,6.61,0,1,0,13.19.18ZM92.39,116a6.88,6.88,0,0,0,.07-13.75A6.89,6.89,0,0,0,92.39,116Z"/><path d="M77.43,80.18c-11.21-.12-20-5.62-23.39-14.68-.93-2.44-1.79-5,1.13-6.57,3.23-1.71,4.35,1,5.55,3.22,3.77,7,9.3,11.29,17.55,11,7.94-.3,14-3.58,17.28-11.27.88-2.12,2.33-4,5-2.82s2.45,3.55,1.61,6C98.92,74.19,89,80.32,77.43,80.18Z"/><path d="M94,50a6.77,6.77,0,0,1-6.79-7,6.85,6.85,0,1,1,13.7.49A7.16,7.16,0,0,1,94,50Z"/><path d="M61.17,50a7.07,7.07,0,0,1-6.63-6.76c0-3.66,3.54-7.1,7.07-6.93a7.14,7.14,0,0,1,6.53,6.89A6.68,6.68,0,0,1,61.17,50Z"/></g></g></svg>